<svg width="41" height="40" viewBox="0 0 41 40" fill="none" xmlns="http://www.w3.org/2000/svg">
<g id="fastfood">
<path id="Vector" d="M2.16663 36.6333C2.16663 37.5667 2.91663 38.3167 3.84996 38.3167H25.5C26.4333 38.3167 27.1833 37.5667 27.1833 36.6333V35H2.16663V36.6333ZM14.6666 14.9834C8.41663 14.9834 2.16663 18.3334 2.16663 25H27.1666C27.1666 18.3334 20.9166 14.9834 14.6666 14.9834ZM6.53329 21.6667C8.38329 19.0834 12.3166 18.3167 14.6666 18.3167C17.0166 18.3167 20.95 19.0834 22.8 21.6667H6.53329ZM2.16663 28.3334H27.1666V31.6667H2.16663V28.3334ZM30.5 8.33335V1.66669H27.1666V8.33335H18.8333L19.2166 11.6667H35.15L32.8166 35H30.5V38.3334H33.3666C34.7666 38.3334 35.9166 37.25 36.0833 35.8834L38.8333 8.33335H30.5Z" fill="url(#paint0_linear_15_15006)"/>
</g>
<defs>
<linearGradient id="paint0_linear_15_15006" x1="20.5" y1="1.66669" x2="20.5" y2="38.3334" gradientUnits="userSpaceOnUse">
<stop stop-color="#5200FF"/>
<stop offset="1" stop-color="#76599B"/>
</linearGradient>
</defs>
</svg>
